<!-- icon666.com - MILLIONS vector ICONS FREE --><svg id="Layer_1" viewBox="0 0 32 32" xmlns="http://www.w3.org/2000/svg" data-name="Layer 1"><path d="m31.2837 5.3872a5.0648 5.0648 0 0 0 -4.6709-4.6709 150.513 150.513 0 0 0 -21.2256 0 5.0648 5.0648 0 0 0 -4.6709 4.6709 150.3629 150.3629 0 0 0 0 21.2256 5.0648 5.0648 0 0 0 4.6709 4.6709 150.1382 150.1382 0 0 0 21.2256 0 5.0648 5.0648 0 0 0 4.6709-4.6709 150.3629 150.3629 0 0 0 0-21.2256zm-12.2837 19.6128h-3a1 1 0 0 1 0-2h3a5 5 0 0 0 0-10h-9.5859l2.2929 2.293a.9994.9994 0 0 1 0 1.414 1.0141 1.0141 0 0 1 -1.414 0l-3.9994-3.9993a1.0165 1.0165 0 0 1 0-1.4154l3.9994-3.9993a1 1 0 1 1 1.414 1.414l-2.2929 2.293h9.5859a7 7 0 0 1 0 14z"></path></svg>